<?xml version="1.0" standalone="no"?>
<!DOCTYPE svg PUBLIC "-//W3C//DTD SVG 20010904//EN"
 "http://www.w3.org/TR/2001/REC-SVG-20010904/DTD/svg10.dtd">
<svg version="1.0" xmlns="http://www.w3.org/2000/svg"
 width="544.000000pt" height="544.000000pt" viewBox="0 0 544.000000 544.000000"
 preserveAspectRatio="xMidYMid meet">
<metadata>
Created by potrace 1.11, written by Peter Selinger 2001-2013
</metadata>
<g transform="translate(0.000000,544.000000) scale(0.100000,-0.100000)"
fill="#000000" stroke="none">
<path d="M2505 5244 c-338 -35 -613 -113 -900 -253 -404 -199 -730 -482 -984
-856 -207 -305 -337 -631 -404 -1015 -29 -172 -32 -605 -4 -775 92 -558 330
-1025 722 -1420 198 -199 417 -356 670 -480 254 -125 498 -200 780 -242 167
-24 525 -24 685 1 457 70 828 223 1185 490 137 103 368 329 469 459 369 477
552 1043 533 1642 -12 376 -92 694 -257 1030 -253 515 -651 913 -1165 1166
-241 118 -482 194 -745 234 -101 16 -494 28 -585 19z m454 -1144 c192 -46 334
-124 467 -255 137 -134 227 -289 294 -504 26 -84 30 -110 30 -216 0 -236 -53
-370 -302 -768 -56 -89 -123 -198 -149 -242 -26 -44 -61 -97 -78 -118 -16 -21
-132 -214 -257 -429 -183 -315 -229 -387 -239 -376 -20 21 -331 527 -740 1205
-134 222 -213 386 -246 509 -33 123 -31 335 4 469 31 119 106 275 175 365 150
198 392 338 658 380 88 14 286 3 383 -20z"/>
<path d="M2642 3505 c-78 -17 -136 -50 -189 -107 -63 -69 -78 -121 -78 -268 0
-120 1 -127 29 -174 45 -77 93 -123 164 -158 61 -30 75 -33 162 -33 84 0 102
3 157 29 74 34 162 121 195 193 18 40 22 66 23 153 0 95 -3 110 -28 162 -80
162 -255 244 -435 203z"/>
</g>
</svg>
